<?xml version="1.0" encoding="UTF-8" standalone="no"?><!DOCTYPE svg PUBLIC "-//W3C//DTD SVG 1.1//EN" "http://www.w3.org/Graphics/SVG/1.1/DTD/svg11.dtd"><svg width="100%" height="100%" viewBox="0 0 31 31" version="1.1" xmlns="http://www.w3.org/2000/svg" xmlns:xlink="http://www.w3.org/1999/xlink" xml:space="preserve" style="fill-rule:evenodd;clip-rule:evenodd;stroke-linejoin:round;stroke-miterlimit:1.41421;"><path d="M26.156,0c2.674,0 4.844,2.17 4.844,4.844l0,21.312c0,2.676 -2.17,4.844 -4.844,4.844l-21.312,0c-2.676,0 -4.844,-2.168 -4.844,-4.844l0,-21.312c0,-2.674 2.168,-4.844 4.844,-4.844l21.312,0Zm-0.054,22.992l0,-11.649l-10.16,7.26c-0.071,0.045 -0.14,0.084 -0.221,0.108c-0.159,0.048 -0.332,0.041 -0.487,-0.02c-0.068,-0.026 -0.083,-0.038 -0.146,-0.076l-9.986,-6.705l0,11.082l21,0Zm-21,-12.889l0,-1.111l21,0l0,0.508l-10.609,7.58l-10.391,-6.977Z" style="fill:#87C1FF;"/></svg>