<?xml version="1.0" encoding="UTF-8" standalone="no"?><!DOCTYPE svg PUBLIC "-//W3C//DTD SVG 1.1//EN" "http://www.w3.org/Graphics/SVG/1.1/DTD/svg11.dtd">

<svg width="100%" height="100%" viewBox="0 0 31 31" version="1.1" xmlns="http://www.w3.org/2000/svg" xmlns:xlink="http://www.w3.org/1999/xlink" xml:space="preserve" style="fill-rule:evenodd;clip-rule:evenodd;stroke-linejoin:round;stroke-miterlimit:1.41421;"><g id="Linkedin-Icon"><path d="M23.25,22.908l-3.323,0l0,-5.347c0,-1.344 -0.48,-2.262 -1.683,-2.262c-0.918,0 -1.465,0.621 -1.706,1.217c-0.088,0.214 -0.109,0.511 -0.109,0.81l0,5.582l-3.322,0c0,0 0.043,-9.058 0,-9.995l3.322,0l0,1.416c0.443,-0.681 1.231,-1.65 2.994,-1.65c2.186,0 3.827,1.429 3.827,4.5l0,5.729Zm-13.643,-11.359l-0.022,0c-1.114,0 -1.835,-0.77 -1.835,-1.727c0,-0.982 0.743,-1.729 1.878,-1.729c1.138,0 1.838,0.747 1.858,1.729c0,0.957 -0.72,1.727 -1.879,1.727Zm1.662,11.359l-3.323,0l0,-9.995l3.323,0l0,9.995Zm14.887,-22.908l-21.312,0c-2.676,0 -4.844,2.17 -4.844,4.844l0,21.312c0,2.676 2.168,4.844 4.844,4.844l21.312,0c2.674,0 4.844,-2.168 4.844,-4.844l0,-21.312c0,-2.674 -2.17,-4.844 -4.844,-4.844Z" style="fill:#f5b730;fill-rule:nonzero;"/></g></svg>