<?xml version="1.0" encoding="UTF-8" standalone="no"?><!DOCTYPE svg PUBLIC "-//W3C//DTD SVG 1.1//EN" "http://www.w3.org/Graphics/SVG/1.1/DTD/svg11.dtd"><svg width="100%" height="100%" viewBox="0 0 31 31" version="1.1" xmlns="http://www.w3.org/2000/svg" xmlns:xlink="http://www.w3.org/1999/xlink" xml:space="preserve" style="fill-rule:evenodd;clip-rule:evenodd;stroke-linejoin:round;stroke-miterlimit:1.41421;"><path id="Link-Icon" fill="#f0c872" d="M29.85,10.408l-5.555,5.555c-1.534,1.533 -4.021,1.533 -5.555,0l2.109,-2.109c0.871,0.23 1.837,0.015 2.52,-0.669l3.703,-3.703c1.023,-1.022 1.023,-2.681 0,-3.703l-1.851,-1.851c-1.023,-1.023 -2.681,-1.023 -3.703,0l-3.704,3.703c-0.683,0.683 -0.899,1.648 -0.668,2.52l-2.109,2.108c-1.534,-1.533 -1.534,-4.02 0,-5.554l5.555,-5.555c1.534,-1.533 4.021,-1.533 5.554,0l3.704,3.703c1.533,1.534 1.533,4.021 0,5.555Zm-19.442,10.184c-0.511,-0.512 -0.511,-1.341 0,-1.852l8.332,-8.332c0.512,-0.511 1.34,-0.511 1.852,0c0.511,0.511 0.511,1.34 0,1.851l-8.332,8.333c-0.512,0.511 -1.341,0.511 -1.852,0Zm-2.777,-2.778l-3.703,3.703c-1.023,1.023 -1.023,2.681 0,3.703l1.851,1.852c1.023,1.022 2.681,1.022 3.703,0l3.704,-3.703c0.683,-0.684 0.899,-1.649 0.668,-2.521l2.109,-2.108c1.534,1.534 1.534,4.021 0,5.554l-5.555,5.555c-1.534,1.534 -4.021,1.534 -5.554,0l-3.704,-3.703c-1.533,-1.534 -1.533,-4.021 0,-5.554l5.555,-5.555c1.534,-1.534 4.021,-1.534 5.555,0l-2.109,2.108c-0.871,-0.23 -1.837,-0.014 -2.52,0.669Z"/></svg>