<?xml version="1.0" encoding="UTF-8" standalone="no"?><!DOCTYPE svg PUBLIC "-//W3C//DTD SVG 1.1//EN" "http://www.w3.org/Graphics/SVG/1.1/DTD/svg11.dtd">

<svg width="100%" height="100%" viewBox="0 0 32 31" version="1.1" xmlns="http://www.w3.org/2000/svg" xmlns:xlink="http://www.w3.org/1999/xlink" xml:space="preserve" style="fill-rule:evenodd;clip-rule:evenodd;stroke-linejoin:round;stroke-miterlimit:1.41421;"><path class="github-icon" fill="#0198FC" d="M15.891,0c-8.776,0 -15.891,7.115 -15.891,15.893c0,7.021 4.553,12.977 10.868,15.08c0.795,0.145 1.085,-0.346 1.085,-0.767c0,-0.377 -0.013,-1.377 -0.021,-2.702c-4.421,0.96 -5.353,-2.131 -5.353,-2.131c-0.723,-1.836 -1.765,-2.325 -1.765,-2.325c-1.443,-0.985 0.109,-0.966 0.109,-0.966c1.595,0.112 2.434,1.638 2.434,1.638c1.418,2.428 3.72,1.727 4.625,1.32c0.145,-1.026 0.555,-1.727 1.009,-2.124c-3.529,-0.401 -7.239,-1.765 -7.239,-7.854c0,-1.735 0.62,-3.154 1.636,-4.265c-0.164,-0.402 -0.709,-2.017 0.155,-4.206c0,0 1.335,-0.427 4.371,1.63c1.268,-0.354 2.628,-0.529 3.979,-0.535c1.349,0.006 2.709,0.181 3.978,0.535c3.034,-2.057 4.366,-1.63 4.366,-1.63c0.867,2.189 0.322,3.804 0.158,4.206c1.019,1.111 1.634,2.53 1.634,4.265c0,6.105 -3.716,7.448 -7.256,7.842c0.57,0.49 1.079,1.46 1.079,2.943c0,2.124 -0.02,3.838 -0.02,4.359c0,0.425 0.286,0.92 1.093,0.765c6.31,-2.106 10.86,-8.059 10.86,-15.078c0,-8.778 -7.117,-15.893 -15.894,-15.893"/></svg>